{
  "accessors": [
    {
      "bufferView": 2,
      "componentType": 5126,
      "count": 3794,
      "max": [
        0.9834865927696228,
        0.8632720112800598,
        1.2106903791427612
      ],
      "min": [
        -1.5224449634552002,
        -0.8632720112800598,
        -0.36705800890922546
      ],
      "type": "VEC3"
    },
    {
      "bufferView": 2,
      "byteOffset": 45528,
      "componentType": 5126,
      "count": 3794,
      "max": [
        1.0,
        1.0,
        1.0
      ],
      "min": [
        -1.0,
        -1.0,
        -1.0
      ],
      "type": "VEC3"
    },
    {
      "bufferView": 3,
      "componentType": 5126,
      "count": 3794,
      "max": [
        1.0,
        1.0,
        1.0,
        1.0
      ],
      "min": [
        -1.0,
        -1.0,
        -1.0,
        -1.0
      ],
      "type": "VEC4"
    },
    {
      "bufferView": 1,
      "componentType": 5126,
      "count": 3794,
      "max": [
        0.9994919300079346,
        0.9963775277137756
      ],
      "min": [
        0.0005072795902378857,
        0.000506316777318716
      ],
      "type": "VEC2"
    },
    {
      "bufferView": 1,
      "byteOffset": 30352,
      "componentType": 5126,
      "count": 3794,
      "max": [
        1.0,
        1.0
      ],
      "min": [
        0.0,
        0.0
      ],
      "type": "VEC2"
    },
    {
      "bufferView": 0,
      "componentType": 5125,
      "count": 13536,
      "type": "SCALAR"
    }
  ],
  "asset": {
    "extras": {
      "author": "golddog (https://sketchfab.com/golddog)",
      "license": "CC-BY-4.0 (http://creativecommons.org/licenses/by/4.0/)",
      "source": "https://sketchfab.com/3d-models/cartoon-tank-7dca2d00a76b4a4e83b8174b622f6ff9",
      "title": "Cartoon Tank"
    },
    "generator": "Sketchfab-12.67.0",
    "version": "2.0"
  },
  "bufferViews": [
    {
      "buffer": 0,
      "byteLength": 54144,
      "name": "floatBufferViews",
      "target": 34963
    },
    {
      "buffer": 0,
      "byteLength": 60704,
      "byteOffset": 54144,
      "byteStride": 8,
      "name": "floatBufferViews",
      "target": 34962
    },
    {
      "buffer": 0,
      "byteLength": 91056,
      "byteOffset": 114848,
      "byteStride": 12,
      "name": "floatBufferViews",
      "target": 34962
    },
    {
      "buffer": 0,
      "byteLength": 60704,
      "byteOffset": 205904,
      "byteStride": 16,
      "name": "floatBufferViews",
      "target": 34962
    }
  ],
  "buffers": [
    {
      "byteLength": 266608,
      "uri": "scene.bin"
    }
  ],
  "images": [
    {
      "uri": "textures/Main.001_baseColor.png"
    },
    {
      "uri": "textures/Main.001_metallicRoughness.png"
    },
    {
      "uri": "textures/Main.001_normal.png"
    }
  ],
  "materials": [
    {
      "doubleSided": true,
      "name": "Main.001",
      "normalTexture": {
        "index": 2
      },
      "occlusionTexture": {
        "index": 1
      },
      "pbrMetallicRoughness": {
        "baseColorTexture": {
          "index": 0
        },
        "metallicRoughnessTexture": {
          "index": 1
        }
      }
    }
  ],
  "meshes": [
    {
      "name": "mesh_Main.001_0",
      "primitives": [
        {
          "attributes": {
            "NORMAL": 1,
            "POSITION": 0,
            "TANGENT": 2,
            "TEXCOORD_0": 3,
            "TEXCOORD_1": 4
          },
          "indices": 5,
          "material": 0,
          "mode": 4
        }
      ]
    }
  ],
  "nodes": [
    {
      "children": [
        1
      ],
      "matrix": [
        1.0,
        0.0,
        0.0,
        0.0,
        0.0,
        2.220446049250313e-16,
        -1.0,
        0.0,
        0.0,
        1.0,
        2.220446049250313e-16,
        0.0,
        0.0,
        0.0,
        0.0,
        1.0
      ],
      "name": "Sketchfab_model"
    },
    {
      "children": [
        2
      ],
      "matrix": [
        1.0,
        0.0,
        0.0,
        0.0,
        0.0,
        0.0,
        1.0,
        0.0,
        0.0,
        -1.0,
        0.0,
        0.0,
        0.0,
        0.0,
        0.0,
        1.0
      ],
      "name": "c58d852ac2a741fc86b8815d0da03247.fbx"
    },
    {
      "children": [
        3
      ],
      "name": "RootNode"
    },
    {
      "children": [
        4
      ],
      "matrix": [
        1.9470718848335622e-05,
        0.0,
        -99.99999999999811,
        0.0,
        -99.99999999999679,
        -1.6292067961387602e-05,
        -1.9470718859437852e-05,
        0.0,
        -1.6292067955836487e-05,
        99.99999999999869,
        -3.197442310920451e-12,
        0.0,
        3.3434481620788574,
        -65.33273315429688,
        13.728910446166992,
        1.0
      ],
      "name": "mesh"
    },
    {
      "mesh": 0,
      "name": "mesh_Main.001_0"
    }
  ],
  "samplers": [
    {
      "magFilter": 9729,
      "minFilter": 9987,
      "wrapS": 10497,
      "wrapT": 10497
    }
  ],
  "scene": 0,
  "scenes": [
    {
      "name": "Sketchfab_Scene",
      "nodes": [
        0
      ]
    }
  ],
  "textures": [
    {
      "sampler": 0,
      "source": 0
    },
    {
      "sampler": 0,
      "source": 1
    },
    {
      "sampler": 0,
      "source": 2
    }
  ]
}
