{
  "accessors": [
    {
      "bufferView": 2,
      "componentType": 5126,
      "count": 2664,
      "max": [
        111.7078628540039,
        111.70787048339844,
        203.4541015625
      ],
      "min": [
        -111.7078628540039,
        -111.70787048339844,
        -3.4540939331054688
      ],
      "type": "VEC3"
    },
    {
      "bufferView": 2,
      "byteOffset": 31968,
      "componentType": 5126,
      "count": 2664,
      "max": [
        1.0,
        1.0,
        1.0
      ],
      "min": [
        -1.0,
        -1.0,
        -1.0
      ],
      "type": "VEC3"
    },
    {
      "bufferView": 1,
      "componentType": 5126,
      "count": 2664,
      "max": [
        0.9296194911003113,
        0.9940546751022339
      ],
      "min": [
        0.03776456415653229,
        0.01237398386001587
      ],
      "type": "VEC2"
    },
    {
      "bufferView": 1,
      "byteOffset": 21312,
      "componentType": 5126,
      "count": 2664,
      "max": [
        0.9296194911003113,
        0.9940546751022339
      ],
      "min": [
        0.03776456415653229,
        0.01237398386001587
      ],
      "type": "VEC2"
    },
    {
      "bufferView": 0,
      "componentType": 5125,
      "count": 4104,
      "type": "SCALAR"
    },
    {
      "bufferView": 2,
      "byteOffset": 63936,
      "componentType": 5126,
      "count": 1704,
      "max": [
        108.43327331542969,
        108.43327331542969,
        216.9361114501953
      ],
      "min": [
        -108.43326568603516,
        -108.43327331542969,
        0.06957003474235535
      ],
      "type": "VEC3"
    },
    {
      "bufferView": 2,
      "byteOffset": 84384,
      "componentType": 5126,
      "count": 1704,
      "max": [
        1.0,
        1.0,
        1.0
      ],
      "min": [
        -1.0,
        -1.0,
        -1.0
      ],
      "type": "VEC3"
    },
    {
      "bufferView": 3,
      "componentType": 5126,
      "count": 1704,
      "max": [
        1.0,
        1.0,
        1.0,
        1.0
      ],
      "min": [
        -1.0,
        -1.0,
        -1.0,
        -1.0
      ],
      "type": "VEC4"
    },
    {
      "bufferView": 1,
      "byteOffset": 42624,
      "componentType": 5126,
      "count": 1704,
      "max": [
        0.9192783832550049,
        0.9734197854995728
      ],
      "min": [
        0.05705969035625458,
        0.021263720467686653
      ],
      "type": "VEC2"
    },
    {
      "bufferView": 1,
      "byteOffset": 56256,
      "componentType": 5126,
      "count": 1704,
      "max": [
        0.9192783832550049,
        0.9734197854995728
      ],
      "min": [
        0.05705969035625458,
        0.021263720467686653
      ],
      "type": "VEC2"
    },
    {
      "bufferView": 0,
      "byteOffset": 16416,
      "componentType": 5125,
      "count": 2664,
      "type": "SCALAR"
    }
  ],
  "asset": {
    "extras": {
      "author": "David DeTogni (https://sketchfab.com/daviddetogni)",
      "license": "CC-BY-4.0 (http://creativecommons.org/licenses/by/4.0/)",
      "source": "https://sketchfab.com/3d-models/stylized-crates-d2d61e6d61c047b8bc82d12f8a686db2",
      "title": "Stylized Crates"
    },
    "generator": "Sketchfab-12.67.0",
    "version": "2.0"
  },
  "bufferViews": [
    {
      "buffer": 0,
      "byteLength": 27072,
      "name": "floatBufferViews",
      "target": 34963
    },
    {
      "buffer": 0,
      "byteLength": 69888,
      "byteOffset": 27072,
      "byteStride": 8,
      "name": "floatBufferViews",
      "target": 34962
    },
    {
      "buffer": 0,
      "byteLength": 104832,
      "byteOffset": 96960,
      "byteStride": 12,
      "name": "floatBufferViews",
      "target": 34962
    },
    {
      "buffer": 0,
      "byteLength": 27264,
      "byteOffset": 201792,
      "byteStride": 16,
      "name": "floatBufferViews",
      "target": 34962
    }
  ],
  "buffers": [
    {
      "byteLength": 229056,
      "uri": "scene.bin"
    }
  ],
  "images": [
    {
      "uri": "textures/Material_baseColor.png"
    },
    {
      "uri": "textures/BaseWoodMaterial_baseColor.png"
    },
    {
      "uri": "textures/BaseWoodMaterial_normal.png"
    }
  ],
  "materials": [
    {
      "doubleSided": true,
      "name": "Material",
      "pbrMetallicRoughness": {
        "baseColorTexture": {
          "index": 0
        },
        "metallicFactor": 0.0,
        "roughnessFactor": 0.8793954578271315
      }
    },
    {
      "doubleSided": true,
      "name": "BaseWoodMaterial",
      "normalTexture": {
        "index": 2
      },
      "pbrMetallicRoughness": {
        "baseColorTexture": {
          "index": 1
        },
        "metallicFactor": 0.0
      }
    }
  ],
  "meshes": [
    {
      "name": "Crate01_Material_0",
      "primitives": [
        {
          "attributes": {
            "NORMAL": 1,
            "POSITION": 0,
            "TEXCOORD_0": 2,
            "TEXCOORD_1": 3
          },
          "indices": 4,
          "material": 0,
          "mode": 4
        }
      ]
    },
    {
      "name": "Crate02_BaseWoodMaterial_0",
      "primitives": [
        {
          "attributes": {
            "NORMAL": 6,
            "POSITION": 5,
            "TANGENT": 7,
            "TEXCOORD_0": 8,
            "TEXCOORD_1": 9
          },
          "indices": 10,
          "material": 1,
          "mode": 4
        }
      ]
    }
  ],
  "nodes": [
    {
      "children": [
        1
      ],
      "matrix": [
        0.003685750998556614,
        0.0,
        0.0,
        0.0,
        0.0,
        8.18401124326543e-19,
        -0.003685750998556614,
        0.0,
        0.0,
        0.003685750998556614,
        8.18401124326543e-19,
        0.0,
        0.0,
        0.0,
        0.0,
        1.0
      ],
      "name": "Sketchfab_model"
    },
    {
      "children": [
        2
      ],
      "matrix": [
        1.0,
        0.0,
        0.0,
        0.0,
        0.0,
        0.0,
        1.0,
        0.0,
        0.0,
        -1.0,
        0.0,
        0.0,
        0.0,
        0.0,
        0.0,
        1.0
      ],
      "name": "ad0e9c03a2784f55a8e6397d4fbab6d9.fbx"
    },
    {
      "children": [
        3,
        5
      ],
      "name": "RootNode"
    },
    {
      "children": [
        4
      ],
      "matrix": [
        1.0,
        0.0,
        0.0,
        0.0,
        0.0,
        -1.6292067939183141e-07,
        -0.9999999999999868,
        0.0,
        0.0,
        0.9999999999999868,
        -1.6292067939183141e-07,
        0.0,
        0.0,
        5.372673034667969,
        -176.6817626953125,
        1.0
      ],
      "name": "Crate01"
    },
    {
      "mesh": 0,
      "name": "Crate01_Material_0"
    },
    {
      "children": [
        6
      ],
      "matrix": [
        1.0,
        0.0,
        0.0,
        0.0,
        -0.0,
        -1.6292067939183141e-07,
        -0.9999999999999868,
        0.0,
        0.0,
        0.9999999999999868,
        -1.6292067939183141e-07,
        0.0,
        -1.3645639419555664,
        1.4842979907989502,
        159.4018096923828,
        1.0
      ],
      "name": "Crate02"
    },
    {
      "mesh": 1,
      "name": "Crate02_BaseWoodMaterial_0"
    }
  ],
  "samplers": [
    {
      "magFilter": 9729,
      "minFilter": 9987,
      "wrapS": 10497,
      "wrapT": 10497
    }
  ],
  "scene": 0,
  "scenes": [
    {
      "name": "Sketchfab_Scene",
      "nodes": [
        0
      ]
    }
  ],
  "textures": [
    {
      "sampler": 0,
      "source": 0
    },
    {
      "sampler": 0,
      "source": 1
    },
    {
      "sampler": 0,
      "source": 2
    }
  ]
}
